HIERARCHY
ROOT Hips
{
	OFFSET 0.000000 0.000000 0.000000
	CHANNELS 6 Xposition Yposition Zposition Zrotation Yrotation Xrotation 
	JOINT LowerBack
	{
		OFFSET 0.000000 0.000000 0.000000
		CHANNELS 3 Zrotation Yrotation Xrotation
		JOINT Spine
		{
			OFFSET 0.028270 2.035590 -0.193380
			CHANNELS 3 Zrotation Yrotation Xrotation
			JOINT Spine1
			{
				OFFSET 0.056720 2.048850 -0.042750
				CHANNELS 3 Zrotation Yrotation Xrotation
				JOINT Neck
				{
					OFFSET 0.000000 0.000000 0.000000
					CHANNELS 3 Zrotation Yrotation Xrotation
					JOINT Neck1
					{
						OFFSET -0.054170 1.746240 0.172020
						CHANNELS 3 Zrotation Yrotation Xrotation
						JOINT Head
						{
							OFFSET 0.104070 1.761360 -0.123970
							CHANNELS 3 Zrotation Yrotation Xrotation
							End Site
							{
								OFFSET 0.000000 0.000000 0.000000
							}
						}
					}
				}
				JOINT LeftShoulder
				{
					OFFSET 0.000000 0.000000 0.000000
					CHANNELS 3 Zrotation Yrotation Xrotation
					JOINT LeftArm
					{
						OFFSET 3.362410 1.200890 -0.311210
						CHANNELS 3 Zrotation Yrotation Xrotation
						JOINT LeftForeArm
						{
							OFFSET 4.983000 -0.000000 -0.000000
							CHANNELS 3 Zrotation Yrotation Xrotation
							JOINT LeftHand
							{
								OFFSET 3.483560 -0.000000 -0.000000
								CHANNELS 3 Zrotation Yrotation Xrotation
								JOINT LeftFingerBase
								{
									OFFSET 0.000000 0.000000 0.000000
									CHANNELS 3 Zrotation Yrotation Xrotation
									JOINT LeftHandIndex1
									{
										OFFSET 0.715260 -0.000000 -0.000000
										CHANNELS 3 Zrotation Yrotation Xrotation
										End Site
										{
											OFFSET 0.000000 0.000000 0.000000
										}
									}
								}
								JOINT LThumb
								{
									OFFSET 0.000000 0.000000 0.000000
									CHANNELS 3 Zrotation Yrotation Xrotation
									End Site
									{
										OFFSET 0.000000 0.000000 0.000000
									}
								}
							}
						}
					}
				}
				JOINT RightShoulder
				{
					OFFSET 0.000000 0.000000 0.000000
					CHANNELS 3 Zrotation Yrotation Xrotation
					JOINT RightArm
					{
						OFFSET -3.136600 1.374050 -0.404650
						CHANNELS 3 Zrotation Yrotation Xrotation
						JOINT RightForeArm
						{
							OFFSET -5.241900 -0.000000 -0.000000
							CHANNELS 3 Zrotation Yrotation Xrotation
							JOINT RightHand
							{
								OFFSET -3.444170 -0.000000 -0.000000
								CHANNELS 3 Zrotation Yrotation Xrotation
								JOINT RightFingerBase
								{
									OFFSET 0.000000 0.000000 0.000000
									CHANNELS 3 Zrotation Yrotation Xrotation
									JOINT RightHandIndex1
									{
										OFFSET -0.622530 -0.000000 -0.000000
										CHANNELS 3 Zrotation Yrotation Xrotation
										End Site
										{
											OFFSET 0.000000 0.000000 0.000000
										}
									}
								}
								JOINT RThumb
								{
									OFFSET 0.000000 0.000000 0.000000
									CHANNELS 3 Zrotation Yrotation Xrotation
									End Site
									{
										OFFSET 0.000000 0.000000 0.000000
									}
								}
							}
						}
					}
				}
			}
		}
	}
}
}
MOTION
Frames: 9
Frame Time: 0.008333
-1.029360 15.965796 1.226817 11.742978 77.156213 43.168852 3.204721 -2.175418 5.682014 -0.057635 -2.162426 -1.595847 -5.924856 -2.279546 0.641065 12.745867 5.825899 3.023862 -3.083554 -0.305807 2.492169 0.000000 0.000000 0.000000 -7.073222 -7.981066 2.144839 -66.246711 -31.371753 3.132847 -2.253947 -16.582982 -0.047070 15.388025 -2.300961 -0.340775 -0.139524 0.200372 0.000000 0.000000 0.000000 0.000000 0.000000 0.000000 0.000000 16.653933 3.017374 1.403275 57.046353 23.343014 -21.030988 1.589136 13.331878 -0.017207 -12.558532 10.981851 -1.240180 0.097155 -0.168491 -0.000000 0.000000 0.000000 0.000000 0.000000 0.000000 0.000000 
-0.854896 16.054362 1.317229 10.893779 76.432482 42.873660 2.762402 -1.956400 5.370243 -0.171719 -1.952071 -1.666438 -5.958672 -2.072560 0.655195 12.704914 5.994300 3.041883 -3.117489 -0.309051 2.492029 0.000000 0.000000 0.000000 -7.078207 -8.061740 2.398271 -65.480864 -30.450166 0.144338 -2.247319 -11.445630 -0.045593 15.660164 -1.409783 -0.220391 -0.126288 0.181304 0.000000 0.000000 0.000000 0.000000 0.000000 0.000000 0.000000 16.813286 3.333006 1.198989 59.289726 23.846122 -16.816612 1.699471 15.117218 -0.013206 -10.715807 10.673936 -1.028231 0.091123 -0.166527 -0.000000 0.000000 0.000000 0.000000 0.000000 0.000000 0.000000 
-0.680404 16.150857 1.408999 10.012713 75.672011 42.560494 2.307574 -1.740077 5.079236 -0.290950 -1.741343 -1.737296 -5.994657 -1.865015 0.648095 12.657561 6.191671 3.082346 -3.156020 -0.312787 2.497237 0.000000 0.000000 0.000000 -7.079076 -8.148444 2.643721 -64.580255 -29.391654 -2.935582 -2.207198 -6.674863 -0.044750 15.953350 -0.563747 -0.103093 -0.112857 0.166957 0.000000 0.000000 0.000000 0.000000 0.000000 0.000000 0.000000 16.993465 3.688873 1.001911 61.472351 24.276604 -12.293104 1.798645 17.019080 -0.009301 -8.694402 10.455883 -0.817083 0.081428 -0.164895 -0.000000 0.000000 0.000000 0.000000 0.000000 0.000000 0.000000 
-0.505430 16.254476 1.501943 9.103221 74.874245 42.229345 1.845384 -1.530557 4.809880 -0.413947 -1.534530 -1.807085 -6.033283 -1.661062 0.624833 12.598570 6.394649 3.136287 -3.199930 -0.316972 2.505408 0.000000 0.000000 0.000000 -7.085410 -8.215946 2.873698 -63.569697 -28.132056 -5.749246 -2.151886 -2.457951 -0.044357 16.253494 0.325399 0.024223 -0.100372 0.155956 0.000000 0.000000 0.000000 0.000000 0.000000 0.000000 0.000000 17.191850 4.059645 0.814632 63.584748 24.696921 -7.561585 1.882366 18.975167 -0.005701 -6.590029 10.383998 -0.615042 0.068449 -0.164347 -0.000000 0.000000 0.000000 0.000000 0.000000 0.000000 0.000000 
-0.329512 16.364175 1.595920 8.168151 74.037248 41.880466 1.379350 -1.330822 4.560821 -0.538781 -1.334820 -1.877289 -6.071909 -1.464039 0.582536 12.523737 6.619952 3.202318 -3.246255 -0.321446 2.516418 0.000000 0.000000 0.000000 -7.102323 -8.234154 3.081900 -62.530529 -26.608677 -7.852408 -2.112433 1.016940 -0.044050 16.464274 1.383461 0.179659 -0.089915 0.146880 0.000000 0.000000 0.000000 0.000000 0.000000 0.000000 0.000000 17.388452 4.466449 0.638072 65.639402 25.094581 -2.782155 1.945345 20.981635 -0.002565 -4.472659 10.463035 -0.420909 0.052614 -0.165557 -0.000000 0.000000 0.000000 0.000000 0.000000 0.000000 0.000000 
-0.152267 16.478545 1.690696 7.199298 73.156721 41.513421 0.905237 -1.152954 4.343715 -0.660052 -1.152645 -1.955179 -6.087943 -1.284683 0.490023 12.411011 6.819265 3.269985 -3.303826 -0.326620 2.527822 0.000000 0.000000 0.000000 -7.051433 -8.202586 3.227256 -61.812331 -23.830831 -8.886272 -2.123877 1.513049 -0.043868 16.461744 3.605169 0.504224 -0.081324 0.135858 0.000000 0.000000 0.000000 0.000000 0.000000 0.000000 0.000000 17.578261 4.861387 0.487480 67.641608 25.534426 2.067899 1.997307 22.975174 0.000138 -2.461464 10.681385 -0.236885 0.035866 -0.168965 -0.000000 0.000000 0.000000 0.000000 0.000000 0.000000 0.000000 
0.026658 16.595948 1.786078 6.201624 72.231981 41.129982 0.422305 -0.994852 4.149545 -0.779618 -0.986780 -2.036963 -6.088818 -1.121621 0.367848 12.268599 6.984148 3.322735 -3.368740 -0.332142 2.535217 0.000000 0.000000 0.000000 -6.950563 -8.083944 3.327385 -61.398549 -20.167660 -8.992259 -2.197586 -0.282533 -0.043286 16.159471 6.596526 0.923614 -0.074746 0.124237 0.000000 0.000000 0.000000 0.000000 0.000000 0.000000 0.000000 17.763875 5.248459 0.359137 69.599900 26.012856 6.936817 2.036484 24.961021 0.002442 -0.628401 10.992089 -0.062968 0.019261 -0.174833 -0.000000 0.000000 0.000000 0.000000 0.000000 0.000000 0.000000 
0.207535 16.714505 1.881907 5.188702 71.267680 40.732271 -0.065575 -0.837749 3.956427 -0.904090 -0.820967 -2.110230 -6.101550 -0.957887 0.274810 12.124682 7.094671 3.338677 -3.431461 -0.337257 2.532329 0.000000 0.000000 0.000000 -6.878269 -7.809750 3.419312 -60.964560 -16.971462 -8.630235 -2.308562 -1.531334 -0.041830 15.500150 8.969466 1.212315 -0.070674 0.115395 0.000000 0.000000 0.000000 0.000000 0.000000 0.000000 0.000000 17.962577 5.605243 0.232816 71.512366 26.541775 11.799855 2.051865 26.939991 0.004294 0.966985 11.345567 0.097741 0.003048 -0.183028 -0.000000 0.000000 0.000000 0.000000 0.000000 0.000000 0.000000 
0.390528 16.832208 1.978010 4.173086 70.264596 40.329035 -0.556913 -0.677057 3.760250 -1.032208 -0.650753 -2.177522 -6.121503 -0.789252 0.206236 11.975297 7.155178 3.320126 -3.489084 -0.341851 2.520121 0.000000 0.000000 0.000000 -6.833022 -7.395388 3.499152 -60.502671 -14.225985 -7.915931 -2.446858 -2.261245 -0.039712 14.487093 10.693522 1.354923 -0.068973 0.108121 0.000000 0.000000 0.000000 0.000000 0.000000 0.000000 0.000000 18.153864 5.933744 0.107997 73.391236 27.092603 16.598687 2.042308 28.925393 0.005785 2.306125 11.685289 0.241641 -0.012340 -0.193366 -0.000000 0.000000 0.000000 0.000000 0.000000 0.000000 0.000000 
